<svg xmlns="http://www.w3.org/2000/svg" width="862.747" height="605.627" viewBox="0 0 862.747 605.627"><defs><style>.a{opacity:0.42;}.b{fill:#464646;}</style></defs><g transform="translate(862.747 605.627) rotate(-180)"><g class="a" transform="translate(159.904 0)"><g transform="translate(396.727 505.02)"><path class="b" d="M3.116,1.558A1.558,1.558,0,1,0,1.558,3.116,1.557,1.557,0,0,0,3.116,1.558Z" transform="translate(0 0)"/></g><g transform="translate(215.025 447.544)"><path class="b" d="M3.116,1.558A1.558,1.558,0,1,0,1.558,3.116,1.557,1.557,0,0,0,3.116,1.558Z" transform="translate(0 0)"/></g><g transform="translate(421.104 361.576)"><path class="b" d="M3.116,1.558A1.558,1.558,0,1,0,1.558,3.116,1.558,1.558,0,0,0,3.116,1.558Z" transform="translate(0 0)"/></g><g transform="translate(466.767 287.255)"><path class="b" d="M3.116,1.558A1.558,1.558,0,1,0,1.558,3.116,1.557,1.557,0,0,0,3.116,1.558Z" transform="translate(0 0)"/></g><g transform="translate(375.033 394.011)"><path class="b" d="M3.116,1.558A1.558,1.558,0,1,0,1.557,3.116,1.558,1.558,0,0,0,3.116,1.558Z" transform="translate(0 0)"/></g><g transform="translate(550.348 407.632)"><ellipse class="b" cx="1.558" cy="1.558" rx="1.558" ry="1.558" transform="translate(0 0)"/></g><g transform="translate(333.799 547.557)"><path class="b" d="M3.117,1.558A1.558,1.558,0,1,0,1.559,3.116,1.558,1.558,0,0,0,3.117,1.558Z" transform="translate(0 0)"/></g><g transform="translate(233.907 518.641)"><path class="b" d="M3.116,1.558A1.558,1.558,0,1,0,1.558,3.116,1.558,1.558,0,0,0,3.116,1.558Z" transform="translate(0 0)"/></g><g transform="translate(183.645 517.347)"><path class="b" d="M3.116,1.558A1.558,1.558,0,1,0,1.558,3.116,1.557,1.557,0,0,0,3.116,1.558Z" transform="translate(0 0)"/></g><g transform="translate(156.064 429.98)"><path class="b" d="M3.116,1.558A1.558,1.558,0,1,0,1.558,3.116,1.558,1.558,0,0,0,3.116,1.558Z" transform="translate(0 0)"/></g><g transform="translate(188.278 382.012)"><path class="b" d="M3.116,1.558A1.558,1.558,0,1,0,1.558,3.116,1.557,1.557,0,0,0,3.116,1.558Z" transform="translate(0 0)"/></g><g transform="translate(76.114 266.975)"><path class="b" d="M3.116,1.558A1.558,1.558,0,1,0,1.558,3.116,1.557,1.557,0,0,0,3.116,1.558Z" transform="translate(0 0)"/></g><g transform="translate(87.367 297.289)"><path class="b" d="M3.116,1.558A1.558,1.558,0,1,0,1.558,3.116,1.559,1.559,0,0,0,3.116,1.558Z" transform="translate(0 0)"/></g><g transform="translate(23.962 127.207)"><path class="b" d="M3.116,1.559A1.558,1.558,0,1,0,1.558,3.117,1.558,1.558,0,0,0,3.116,1.559Z" transform="translate(0 0)"/></g><g transform="translate(48.875 178.395)"><path class="b" d="M3.116,1.558A1.558,1.558,0,1,0,1.558,3.116,1.557,1.557,0,0,0,3.116,1.558Z" transform="translate(0 0)"/></g><g transform="translate(66.637 33.628)"><path class="b" d="M3.116,1.558A1.558,1.558,0,1,0,1.558,3.116,1.557,1.557,0,0,0,3.116,1.558Z" transform="translate(0 0)"/></g><g transform="translate(10.433 0)"><path class="b" d="M3.116,1.558A1.558,1.558,0,1,0,1.558,3.116,1.557,1.557,0,0,0,3.116,1.558Z" transform="translate(0 0)"/></g><g transform="translate(281.271 15.832)"><path class="b" d="M3.116,1.559A1.558,1.558,0,1,0,1.558,3.116,1.558,1.558,0,0,0,3.116,1.559Z" transform="translate(0 0)"/></g><g transform="translate(385.085 28.232)"><path class="b" d="M3.117,1.558A1.558,1.558,0,1,0,1.559,3.116,1.558,1.558,0,0,0,3.117,1.558Z" transform="translate(0 0)"/></g><g transform="translate(408.9 89.309)"><path class="b" d="M3.116,1.558A1.558,1.558,0,1,0,1.558,3.116,1.558,1.558,0,0,0,3.116,1.558Z" transform="translate(0 0)"/></g><g transform="translate(296.231 104.187)"><path class="b" d="M3.116,1.558A1.558,1.558,0,1,0,1.558,3.116,1.557,1.557,0,0,0,3.116,1.558Z" transform="translate(0 0)"/></g><g transform="translate(286.165 140.69)"><path class="b" d="M3.116,1.559A1.558,1.558,0,1,0,1.558,3.117,1.559,1.559,0,0,0,3.116,1.559Z" transform="translate(0 0)"/></g><g transform="translate(262.131 139.407)"><path class="b" d="M3.116,1.558A1.558,1.558,0,1,0,1.558,3.116,1.557,1.557,0,0,0,3.116,1.558Z" transform="translate(0 0)"/></g><g transform="translate(556.492 120.759)"><path class="b" d="M3.116,1.558A1.558,1.558,0,1,0,1.558,3.117,1.558,1.558,0,0,0,3.116,1.558Z" transform="translate(0 0)"/></g><g transform="translate(491.531 131.879)"><path class="b" d="M3.116,1.559A1.558,1.558,0,1,0,1.558,3.117,1.559,1.559,0,0,0,3.116,1.559Z" transform="translate(0 0)"/></g><g transform="translate(560.376 182.055)"><path class="b" d="M3.116,1.558A1.558,1.558,0,1,0,1.558,3.116,1.557,1.557,0,0,0,3.116,1.558Z" transform="translate(0 0)"/></g><g transform="translate(578.077 255.858)"><path class="b" d="M3.116,1.558A1.558,1.558,0,1,0,1.558,3.116,1.557,1.557,0,0,0,3.116,1.558Z" transform="translate(0 0)"/></g><g transform="translate(544.35 279.702)"><path class="b" d="M3.116,1.558A1.558,1.558,0,1,0,1.558,3.116,1.558,1.558,0,0,0,3.116,1.558Z" transform="translate(0 0)"/></g><g transform="translate(558.719 346.215)"><path class="b" d="M3.116,1.558A1.558,1.558,0,1,0,1.558,3.116,1.559,1.559,0,0,0,3.116,1.558Z" transform="translate(0 0)"/></g><g transform="translate(567.318 346.192)"><ellipse class="b" cx="1.558" cy="1.558" rx="1.558" ry="1.558" transform="translate(0 0)"/></g><g transform="translate(380.294 464.971)"><path class="b" d="M3.116,1.558A1.558,1.558,0,1,0,1.558,3.116,1.558,1.558,0,0,0,3.116,1.558Z" transform="translate(0 0)"/></g><g transform="translate(262.736 414.853)"><path class="b" d="M3.116,1.558A1.558,1.558,0,1,0,1.558,3.116,1.557,1.557,0,0,0,3.116,1.558Z" transform="translate(0 0)"/></g><g transform="translate(343.495 396.223)"><path class="b" d="M3.117,1.558A1.558,1.558,0,1,0,1.558,3.116,1.558,1.558,0,0,0,3.117,1.558Z" transform="translate(0 0)"/></g><g transform="translate(66.246 394.824)"><path class="b" d="M3.116,1.558A1.558,1.558,0,1,0,1.558,3.116,1.557,1.557,0,0,0,3.116,1.558Z" transform="translate(0 0)"/></g><g transform="translate(18.721 324.784)"><path class="b" d="M3.116,1.558A1.558,1.558,0,1,0,1.558,3.116,1.558,1.558,0,0,0,3.116,1.558Z" transform="translate(0 0)"/></g><g transform="translate(0 272.138)"><path class="b" d="M3.116,1.558A1.558,1.558,0,1,0,1.558,3.116,1.557,1.557,0,0,0,3.116,1.558Z" transform="translate(0 0)"/></g><g transform="translate(11.335 427.258)"><ellipse class="b" cx="1.558" cy="1.558" rx="1.558" ry="1.558" transform="translate(0 0)"/></g><g transform="translate(20.213 548.33)"><path class="b" d="M3.116,1.558A1.558,1.558,0,1,0,1.558,3.116,1.557,1.557,0,0,0,3.116,1.558Z" transform="translate(0 0)"/></g><g transform="translate(62.818 558.428)"><path class="b" d="M3.116,1.559A1.558,1.558,0,1,0,1.558,3.117,1.558,1.558,0,0,0,3.116,1.559Z" transform="translate(0 0)"/></g><g transform="translate(263.902 566.263)"><path class="b" d="M3.116,1.558A1.558,1.558,0,1,0,1.558,3.116,1.558,1.558,0,0,0,3.116,1.558Z" transform="translate(0 0)"/></g><g transform="translate(201.276 550.053)"><path class="b" d="M3.116,1.558A1.558,1.558,0,1,0,1.558,3.116,1.557,1.557,0,0,0,3.116,1.558Z" transform="translate(0 0)"/></g><g transform="translate(382.794 568.819)"><path class="b" d="M3.116,1.558A1.558,1.558,0,1,0,1.558,3.116,1.557,1.557,0,0,0,3.116,1.558Z" transform="translate(0 0)"/></g><g transform="translate(366.418 520.038)"><path class="b" d="M3.116,1.558A1.558,1.558,0,1,0,1.558,3.116,1.557,1.557,0,0,0,3.116,1.558Z" transform="translate(0 0)"/></g><g transform="translate(337.486 468.722)"><path class="b" d="M3.116,1.558A1.558,1.558,0,1,0,1.558,3.116,1.557,1.557,0,0,0,3.116,1.558Z" transform="translate(0 0)"/></g><g transform="translate(230.136 408.565)"><path class="b" d="M3.116,1.558A1.558,1.558,0,1,0,1.558,3.116,1.558,1.558,0,0,0,3.116,1.558Z" transform="translate(0 0)"/></g><g transform="translate(194.296 386.457)"><path class="b" d="M3.116,1.558A1.558,1.558,0,1,0,1.558,3.116,1.558,1.558,0,0,0,3.116,1.558Z" transform="translate(0 0)"/></g><g transform="translate(139.896 318.51)"><path class="b" d="M3.116,1.558A1.558,1.558,0,1,0,1.558,3.116,1.557,1.557,0,0,0,3.116,1.558Z" transform="translate(0 0)"/></g><g transform="translate(129.981 285.788)"><path class="b" d="M3.116,1.558A1.558,1.558,0,1,0,1.558,3.116,1.557,1.557,0,0,0,3.116,1.558Z" transform="translate(0 0)"/></g><g transform="translate(139.992 233.185)"><ellipse class="b" cx="1.558" cy="1.558" rx="1.558" ry="1.558" transform="translate(0 0)"/></g><g transform="translate(156.3 193.13)"><path class="b" d="M3.116,1.557A1.558,1.558,0,1,0,1.558,3.116,1.557,1.557,0,0,0,3.116,1.557Z" transform="translate(0 0)"/></g><g transform="translate(242.248 169.681)"><path class="b" d="M3.116,1.558A1.558,1.558,0,1,0,1.558,3.116,1.557,1.557,0,0,0,3.116,1.558Z" transform="translate(0 0)"/></g><g transform="translate(309.873 159.653)"><path class="b" d="M3.116,1.558A1.558,1.558,0,1,0,1.558,3.116,1.557,1.557,0,0,0,3.116,1.558Z" transform="translate(0 0)"/></g><g transform="translate(335.119 153.106)"><path class="b" d="M3.116,1.558A1.558,1.558,0,1,0,1.558,3.116,1.558,1.558,0,0,0,3.116,1.558Z" transform="translate(0 0)"/></g><g transform="translate(412.709 176.743)"><path class="b" d="M3.116,1.559A1.558,1.558,0,1,0,1.558,3.117,1.558,1.558,0,0,0,3.116,1.559Z" transform="translate(0 0)"/></g><g transform="translate(417.641 224.248)"><path class="b" d="M3.116,1.558A1.558,1.558,0,1,0,1.558,3.116,1.557,1.557,0,0,0,3.116,1.558Z" transform="translate(0 0)"/></g><g transform="translate(400.928 314.578)"><path class="b" d="M3.116,1.558A1.558,1.558,0,1,0,1.558,3.116,1.557,1.557,0,0,0,3.116,1.558Z" transform="translate(0 0)"/></g><g transform="translate(379.526 332.272)"><path class="b" d="M3.116,1.558A1.558,1.558,0,1,0,1.558,3.116,1.558,1.558,0,0,0,3.116,1.558Z" transform="translate(0 0)"/></g><g transform="translate(379.856 369.954)"><path class="b" d="M3.116,1.558A1.558,1.558,0,1,0,1.558,3.116,1.557,1.557,0,0,0,3.116,1.558Z" transform="translate(0 0)"/></g><g transform="translate(178.75 355.899)"><path class="b" d="M3.116,1.558A1.558,1.558,0,1,0,1.558,3.116,1.558,1.558,0,0,0,3.116,1.558Z" transform="translate(0 0)"/></g><g transform="translate(171.373 329.539)"><path class="b" d="M3.116,1.558A1.558,1.558,0,1,0,1.558,3.116,1.558,1.558,0,0,0,3.116,1.558Z" transform="translate(0 0)"/></g><g transform="translate(172.73 263.273)"><path class="b" d="M3.116,1.558A1.558,1.558,0,1,0,1.558,3.116,1.557,1.557,0,0,0,3.116,1.558Z" transform="translate(0 0)"/></g><g transform="translate(360.937 194.397)"><path class="b" d="M3.116,1.558A1.558,1.558,0,1,0,1.558,3.116,1.557,1.557,0,0,0,3.116,1.558Z" transform="translate(0 0)"/></g><g transform="translate(377.18 212.031)"><ellipse class="b" cx="1.558" cy="1.558" rx="1.558" ry="1.558" transform="translate(0 0)"/></g><g transform="translate(393.598 223.399)"><ellipse class="b" cx="1.558" cy="1.558" rx="1.558" ry="1.558" transform="translate(0 0)"/></g><g transform="translate(427.632 240.808)"><ellipse class="b" cx="1.558" cy="1.558" rx="1.558" ry="1.558" transform="translate(0 0)"/></g><g transform="translate(448.653 273.324)"><path class="b" d="M3.116,1.558A1.558,1.558,0,1,0,1.558,3.116,1.557,1.557,0,0,0,3.116,1.558Z" transform="translate(0 0)"/></g><g transform="translate(456.543 306.153)"><path class="b" d="M3.116,1.558A1.558,1.558,0,1,0,1.558,3.116,1.558,1.558,0,0,0,3.116,1.558Z" transform="translate(0 0)"/></g><g transform="translate(459.368 325.239)"><path class="b" d="M3.116,1.558A1.558,1.558,0,1,0,1.558,3.116,1.557,1.557,0,0,0,3.116,1.558Z" transform="translate(0 0)"/></g><g transform="translate(425.001 326.1)"><path class="b" d="M3.116,1.558A1.558,1.558,0,1,0,1.558,3.116,1.557,1.557,0,0,0,3.116,1.558Z" transform="translate(0 0)"/></g><g transform="translate(439.933 362.088)"><path class="b" d="M3.116,1.558A1.558,1.558,0,1,0,1.558,3.117,1.558,1.558,0,0,0,3.116,1.558Z" transform="translate(0 0)"/></g><g transform="translate(444.96 358.697)"><ellipse class="b" cx="1.558" cy="1.558" rx="1.558" ry="1.558" transform="translate(0 0)"/></g><g transform="translate(487.271 287.284)"><path class="b" d="M3.116,1.558A1.558,1.558,0,1,0,1.558,3.116,1.559,1.559,0,0,0,3.116,1.558Z" transform="translate(0 0)"/></g><g transform="translate(478.598 234.91)"><path class="b" d="M3.116,1.559A1.558,1.558,0,1,0,1.558,3.117,1.559,1.559,0,0,0,3.116,1.559Z" transform="translate(0 0)"/></g><g transform="translate(466.732 255.143)"><ellipse class="b" cx="1.558" cy="1.558" rx="1.558" ry="1.558" transform="translate(0 0)"/></g><g transform="translate(420.235 142.934)"><path class="b" d="M3.116,1.558A1.558,1.558,0,1,0,1.558,3.116,1.557,1.557,0,0,0,3.116,1.558Z" transform="translate(0 0)"/></g></g><g transform="translate(224.053 58.614)"><g transform="translate(124.748 402.381)"><path class="b" d="M3.116,1.558A1.558,1.558,0,1,0,1.558,3.116,1.557,1.557,0,0,0,3.116,1.558Z" transform="translate(0 0)"/></g><g transform="translate(211.174 373.368)"><path class="b" d="M3.116,1.558A1.558,1.558,0,1,0,1.558,3.116,1.557,1.557,0,0,0,3.116,1.558Z" transform="translate(0 0)"/></g><g transform="translate(113.52 338.414)"><path class="b" d="M3.116,1.558A1.558,1.558,0,1,0,1.558,3.116,1.558,1.558,0,0,0,3.116,1.558Z" transform="translate(0 0)"/></g><g transform="translate(128.627 364.757)"><path class="b" d="M3.116,1.558A1.558,1.558,0,1,0,1.558,3.116,1.557,1.557,0,0,0,3.116,1.558Z" transform="translate(0 0)"/></g><g transform="translate(301.023 324.76)"><path class="b" d="M3.116,1.558A1.558,1.558,0,1,0,1.558,3.116,1.557,1.557,0,0,0,3.116,1.558Z" transform="translate(0 0)"/></g><g transform="translate(108.647 287.307)"><path class="b" d="M3.117,1.558A1.558,1.558,0,1,0,1.559,3.116,1.558,1.558,0,0,0,3.117,1.558Z" transform="translate(0 0)"/></g><g transform="translate(102.468 231.272)"><path class="b" d="M3.116,1.558A1.558,1.558,0,1,0,1.558,3.116,1.558,1.558,0,0,0,3.116,1.558Z" transform="translate(0 0)"/></g><g transform="translate(323.445 249.775)"><path class="b" d="M3.116,1.558A1.558,1.558,0,1,0,1.558,3.116,1.558,1.558,0,0,0,3.116,1.558Z" transform="translate(0 0)"/></g><g transform="translate(339.834 293.592)"><path class="b" d="M3.116,1.558A1.558,1.558,0,1,0,1.558,3.116,1.558,1.558,0,0,0,3.116,1.558Z" transform="translate(0 0)"/></g><g transform="translate(273.58 370.987)"><path class="b" d="M3.116,1.558A1.558,1.558,0,1,0,1.558,3.116,1.557,1.557,0,0,0,3.116,1.558Z" transform="translate(0 0)"/></g><g transform="translate(302.358 416.038)"><path class="b" d="M3.116,1.558A1.558,1.558,0,1,0,1.558,3.116,1.557,1.557,0,0,0,3.116,1.558Z" transform="translate(0 0)"/></g><g transform="translate(186.127 433.711)"><path class="b" d="M3.116,1.558A1.558,1.558,0,1,0,1.558,3.116,1.557,1.557,0,0,0,3.116,1.558Z" transform="translate(0 0)"/></g><g transform="translate(186.116 404.706)"><path class="b" d="M3.116,1.558A1.558,1.558,0,1,0,1.558,3.116,1.558,1.558,0,0,0,3.116,1.558Z" transform="translate(0 0)"/></g><g transform="translate(397.172 207.464)"><path class="b" d="M3.116,1.558A1.558,1.558,0,1,0,1.558,3.116,1.557,1.557,0,0,0,3.116,1.558Z" transform="translate(0 0)"/></g><g transform="translate(372.168 122.633)"><path class="b" d="M3.116,1.558A1.558,1.558,0,1,0,1.558,3.116,1.558,1.558,0,0,0,3.116,1.558Z" transform="translate(0 0)"/></g><g transform="translate(374.676 58.896)"><path class="b" d="M3.117,1.558A1.558,1.558,0,1,0,1.558,3.116,1.558,1.558,0,0,0,3.117,1.558Z" transform="translate(0 0)"/></g><g transform="translate(262.454 6.318)"><path class="b" d="M3.116,1.558A1.558,1.558,0,1,0,1.558,3.116,1.559,1.559,0,0,0,3.116,1.558Z" transform="translate(0 0)"/></g><g transform="translate(214.72 0)"><path class="b" d="M3.116,1.558A1.558,1.558,0,1,0,1.558,3.116,1.557,1.557,0,0,0,3.116,1.558Z" transform="translate(0 0)"/></g><g transform="translate(192.074 41.344)"><path class="b" d="M3.116,1.558A1.558,1.558,0,1,0,1.558,3.116,1.557,1.557,0,0,0,3.116,1.558Z" transform="translate(0 0)"/></g><g transform="translate(245 48.87)"><path class="b" d="M3.116,1.558A1.558,1.558,0,1,0,1.558,3.116,1.558,1.558,0,0,0,3.116,1.558Z" transform="translate(0 0)"/></g><g transform="translate(235.01 77.942)"><path class="b" d="M3.116,1.558A1.558,1.558,0,1,0,1.558,3.116,1.558,1.558,0,0,0,3.116,1.558Z" transform="translate(0 0)"/></g><g transform="translate(212.104 72.821)"><path class="b" d="M3.116,1.558A1.558,1.558,0,1,0,1.558,3.116,1.557,1.557,0,0,0,3.116,1.558Z" transform="translate(0 0)"/></g><g transform="translate(0 126.339)"><path class="b" d="M3.116,1.558A1.558,1.558,0,1,0,1.558,3.116,1.558,1.558,0,0,0,3.116,1.558Z" transform="translate(0 0)"/></g><g transform="translate(35.062 91.269)"><path class="b" d="M3.116,1.558A1.558,1.558,0,1,0,1.558,3.116,1.557,1.557,0,0,0,3.116,1.558Z" transform="translate(0 0)"/></g><g transform="translate(141.124 126.333)"><path class="b" d="M3.116,1.558A1.558,1.558,0,1,0,1.558,3.116,1.557,1.557,0,0,0,3.116,1.558Z" transform="translate(0 0)"/></g><g transform="translate(99.954 204.774)"><path class="b" d="M3.116,1.558A1.558,1.558,0,1,0,1.558,3.116,1.558,1.558,0,0,0,3.116,1.558Z" transform="translate(0 0)"/></g><g transform="translate(26.172 207.487)"><path class="b" d="M3.116,1.558A1.558,1.558,0,1,0,1.558,3.116,1.557,1.557,0,0,0,3.116,1.558Z" transform="translate(0 0)"/></g></g><g transform="translate(0 168.8)"><g transform="translate(124.748 402.381)"><path class="b" d="M3.116,1.558A1.558,1.558,0,1,0,1.558,3.116,1.557,1.557,0,0,0,3.116,1.558Z" transform="translate(0 0)"/></g><g transform="translate(211.174 373.368)"><path class="b" d="M3.116,1.558A1.558,1.558,0,1,0,1.558,3.116,1.557,1.557,0,0,0,3.116,1.558Z" transform="translate(0 0)"/></g><g transform="translate(113.52 338.414)"><path class="b" d="M3.116,1.558A1.558,1.558,0,1,0,1.558,3.116,1.558,1.558,0,0,0,3.116,1.558Z" transform="translate(0 0)"/></g><g transform="translate(128.627 364.757)"><path class="b" d="M3.116,1.558A1.558,1.558,0,1,0,1.558,3.116,1.557,1.557,0,0,0,3.116,1.558Z" transform="translate(0 0)"/></g><g transform="translate(301.023 324.76)"><path class="b" d="M3.117,1.558A1.558,1.558,0,1,0,1.558,3.116,1.558,1.558,0,0,0,3.117,1.558Z" transform="translate(0 0)"/></g><g transform="translate(108.648 287.307)"><path class="b" d="M3.116,1.558A1.558,1.558,0,1,0,1.558,3.116,1.558,1.558,0,0,0,3.116,1.558Z" transform="translate(0 0)"/></g><g transform="translate(102.468 231.272)"><path class="b" d="M3.116,1.558A1.558,1.558,0,1,0,1.558,3.116,1.558,1.558,0,0,0,3.116,1.558Z" transform="translate(0 0)"/></g><g transform="translate(323.445 249.775)"><path class="b" d="M3.116,1.558A1.558,1.558,0,1,0,1.558,3.116,1.558,1.558,0,0,0,3.116,1.558Z" transform="translate(0 0)"/></g><g transform="translate(339.834 293.592)"><path class="b" d="M3.116,1.558A1.558,1.558,0,1,0,1.558,3.116,1.558,1.558,0,0,0,3.116,1.558Z" transform="translate(0 0)"/></g><g transform="translate(273.58 370.987)"><path class="b" d="M3.116,1.558A1.558,1.558,0,1,0,1.558,3.116,1.557,1.557,0,0,0,3.116,1.558Z" transform="translate(0 0)"/></g><g transform="translate(302.358 416.038)"><path class="b" d="M3.116,1.558A1.558,1.558,0,1,0,1.558,3.116,1.557,1.557,0,0,0,3.116,1.558Z" transform="translate(0 0)"/></g><g transform="translate(186.127 433.711)"><path class="b" d="M3.117,1.558A1.558,1.558,0,1,0,1.558,3.116,1.558,1.558,0,0,0,3.117,1.558Z" transform="translate(0 0)"/></g><g transform="translate(186.057 404.646)"><ellipse class="b" cx="1.558" cy="1.558" rx="1.558" ry="1.558" transform="translate(0.12 0) rotate(2.201)"/></g><g transform="translate(397.172 207.463)"><path class="b" d="M3.116,1.558A1.558,1.558,0,1,0,1.558,3.116,1.557,1.557,0,0,0,3.116,1.558Z" transform="translate(0 0)"/></g><g transform="translate(372.168 122.633)"><path class="b" d="M3.116,1.558A1.558,1.558,0,1,0,1.558,3.116,1.558,1.558,0,0,0,3.116,1.558Z" transform="translate(0 0)"/></g><g transform="translate(374.677 58.896)"><path class="b" d="M3.116,1.558A1.558,1.558,0,1,0,1.558,3.116,1.558,1.558,0,0,0,3.116,1.558Z" transform="translate(0 0)"/></g><g transform="translate(262.454 6.318)"><path class="b" d="M3.116,1.558A1.558,1.558,0,1,0,1.558,3.117,1.558,1.558,0,0,0,3.116,1.558Z" transform="translate(0 0)"/></g><g transform="translate(214.72 0)"><path class="b" d="M3.116,1.558A1.558,1.558,0,1,0,1.558,3.116,1.557,1.557,0,0,0,3.116,1.558Z" transform="translate(0 0)"/></g><g transform="translate(192.074 41.344)"><path class="b" d="M3.116,1.558A1.558,1.558,0,1,0,1.558,3.116,1.557,1.557,0,0,0,3.116,1.558Z" transform="translate(0 0)"/></g><g transform="translate(245 48.87)"><path class="b" d="M3.116,1.558A1.558,1.558,0,1,0,1.558,3.116,1.557,1.557,0,0,0,3.116,1.558Z" transform="translate(0 0)"/></g><g transform="translate(235.01 77.942)"><path class="b" d="M3.116,1.558A1.558,1.558,0,1,0,1.558,3.116,1.558,1.558,0,0,0,3.116,1.558Z" transform="translate(0 0)"/></g><g transform="translate(212.104 72.821)"><path class="b" d="M3.116,1.558A1.558,1.558,0,1,0,1.558,3.116,1.557,1.557,0,0,0,3.116,1.558Z" transform="translate(0 0)"/></g><g transform="translate(0 126.339)"><path class="b" d="M3.116,1.558A1.558,1.558,0,1,0,1.558,3.116,1.557,1.557,0,0,0,3.116,1.558Z" transform="translate(0 0)"/></g><g transform="translate(35.062 91.269)"><path class="b" d="M3.116,1.558A1.558,1.558,0,1,0,1.558,3.116,1.557,1.557,0,0,0,3.116,1.558Z" transform="translate(0 0)"/></g><g transform="translate(141.124 126.333)"><path class="b" d="M3.117,1.558A1.558,1.558,0,1,0,1.558,3.116,1.558,1.558,0,0,0,3.117,1.558Z" transform="translate(0)"/></g><g transform="translate(99.954 204.774)"><path class="b" d="M3.116,1.558A1.558,1.558,0,1,0,1.558,3.116,1.558,1.558,0,0,0,3.116,1.558Z" transform="translate(0 0)"/></g><g transform="translate(26.172 207.487)"><path class="b" d="M3.117,1.558A1.558,1.558,0,1,0,1.558,3.116,1.558,1.558,0,0,0,3.117,1.558Z" transform="translate(0 0)"/></g></g><g transform="translate(462.459 16.149)"><g transform="translate(124.749 402.382)"><ellipse class="b" cx="1.558" cy="1.558" rx="1.558" ry="1.558" transform="translate(0 0)"/></g><g transform="translate(211.174 373.368)"><path class="b" d="M3.116,1.558A1.558,1.558,0,1,0,1.558,3.116,1.557,1.557,0,0,0,3.116,1.558Z" transform="translate(0 0)"/></g><g transform="translate(113.52 338.415)"><path class="b" d="M3.116,1.558A1.558,1.558,0,1,0,1.558,3.116,1.557,1.557,0,0,0,3.116,1.558Z" transform="translate(0 0)"/></g><g transform="translate(128.627 364.757)"><path class="b" d="M3.116,1.558A1.558,1.558,0,1,0,1.558,3.116,1.558,1.558,0,0,0,3.116,1.558Z" transform="translate(0 0)"/></g><g transform="translate(301.023 324.76)"><path class="b" d="M3.117,1.558A1.558,1.558,0,1,0,1.558,3.116,1.558,1.558,0,0,0,3.117,1.558Z" transform="translate(0 0)"/></g><g transform="translate(108.648 287.307)"><path class="b" d="M3.116,1.558A1.558,1.558,0,1,0,1.558,3.116,1.558,1.558,0,0,0,3.116,1.558Z" transform="translate(0 0)"/></g><g transform="translate(102.468 231.272)"><path class="b" d="M3.116,1.559A1.558,1.558,0,1,0,1.558,3.117,1.558,1.558,0,0,0,3.116,1.559Z" transform="translate(0 0)"/></g><g transform="translate(323.445 249.775)"><path class="b" d="M3.116,1.558A1.558,1.558,0,1,0,1.558,3.116,1.558,1.558,0,0,0,3.116,1.558Z" transform="translate(0 0)"/></g><g transform="translate(339.833 293.592)"><ellipse class="b" cx="1.558" cy="1.558" rx="1.558" ry="1.558" transform="translate(0 0)"/></g><g transform="translate(273.58 370.987)"><path class="b" d="M3.116,1.558A1.558,1.558,0,1,0,1.558,3.116,1.557,1.557,0,0,0,3.116,1.558Z" transform="translate(0 0)"/></g><g transform="translate(302.358 416.038)"><path class="b" d="M3.116,1.558A1.558,1.558,0,1,0,1.558,3.116,1.558,1.558,0,0,0,3.116,1.558Z" transform="translate(0 0)"/></g><g transform="translate(186.127 433.711)"><path class="b" d="M3.117,1.558A1.558,1.558,0,1,0,1.558,3.116,1.558,1.558,0,0,0,3.117,1.558Z" transform="translate(0 0)"/></g><g transform="translate(186.116 404.705)"><path class="b" d="M3.116,1.558A1.558,1.558,0,1,0,1.558,3.116,1.558,1.558,0,0,0,3.116,1.558Z" transform="translate(0 0)"/></g><g transform="translate(397.172 207.463)"><path class="b" d="M3.116,1.559A1.558,1.558,0,1,0,1.558,3.117,1.558,1.558,0,0,0,3.116,1.559Z" transform="translate(0 0)"/></g><g transform="translate(372.168 122.633)"><path class="b" d="M3.116,1.558A1.558,1.558,0,1,0,1.558,3.116,1.558,1.558,0,0,0,3.116,1.558Z" transform="translate(0 0)"/></g><g transform="translate(374.676 58.896)"><path class="b" d="M3.117,1.558A1.558,1.558,0,1,0,1.559,3.117,1.559,1.559,0,0,0,3.117,1.558Z" transform="translate(0 0)"/></g><g transform="translate(262.454 6.319)"><path class="b" d="M3.116,1.558A1.558,1.558,0,1,0,1.558,3.116,1.557,1.557,0,0,0,3.116,1.558Z" transform="translate(0 0)"/></g><g transform="translate(214.72 0)"><path class="b" d="M3.116,1.558A1.558,1.558,0,1,0,1.558,3.116,1.557,1.557,0,0,0,3.116,1.558Z" transform="translate(0 0)"/></g><g transform="translate(192.074 41.344)"><path class="b" d="M3.116,1.558A1.558,1.558,0,1,0,1.558,3.117,1.558,1.558,0,0,0,3.116,1.558Z" transform="translate(0 0)"/></g><g transform="translate(245 48.87)"><path class="b" d="M3.116,1.558A1.558,1.558,0,1,0,1.558,3.116,1.558,1.558,0,0,0,3.116,1.558Z" transform="translate(0 0)"/></g><g transform="translate(235.01 77.943)"><path class="b" d="M3.116,1.557A1.558,1.558,0,1,0,1.558,3.114,1.557,1.557,0,0,0,3.116,1.557Z" transform="translate(0 0)"/></g><g transform="translate(212.105 72.821)"><ellipse class="b" cx="1.558" cy="1.558" rx="1.558" ry="1.558" transform="translate(0 0)"/></g><g transform="translate(0 126.339)"><path class="b" d="M3.116,1.558A1.558,1.558,0,1,0,1.558,3.116,1.557,1.557,0,0,0,3.116,1.558Z" transform="translate(0 0)"/></g><g transform="translate(35.062 91.269)"><path class="b" d="M3.116,1.559A1.558,1.558,0,1,0,1.558,3.116,1.558,1.558,0,0,0,3.116,1.559Z" transform="translate(0 0)"/></g><g transform="translate(141.124 126.333)"><path class="b" d="M3.117,1.558A1.558,1.558,0,1,0,1.558,3.116,1.559,1.559,0,0,0,3.117,1.558Z" transform="translate(0 0)"/></g><g transform="translate(99.954 204.774)"><path class="b" d="M3.116,1.558A1.558,1.558,0,1,0,1.558,3.116,1.559,1.559,0,0,0,3.116,1.558Z" transform="translate(0 0)"/></g><g transform="translate(26.172 207.487)"><path class="b" d="M3.117,1.558A1.558,1.558,0,1,0,1.558,3.116,1.558,1.558,0,0,0,3.117,1.558Z" transform="translate(0 0)"/></g></g><g transform="translate(287.797 62.872)"><g transform="translate(77.21 337.423)"><path class="b" d="M3.117,1.558A1.558,1.558,0,1,0,1.558,3.116,1.558,1.558,0,0,0,3.117,1.558Z" transform="translate(0 0)"/></g><g transform="translate(110.094 366.61)"><path class="b" d="M3.116,1.558A1.558,1.558,0,1,0,1.558,3.116,1.557,1.557,0,0,0,3.116,1.558Z" transform="translate(0 0)"/></g><g transform="translate(87.536 349.082)"><path class="b" d="M3.117,1.558A1.558,1.558,0,1,0,1.558,3.116,1.558,1.558,0,0,0,3.117,1.558Z" transform="translate(0 0)"/></g><g transform="translate(162.461 376.582)"><path class="b" d="M3.116,1.558A1.558,1.558,0,1,0,1.558,3.116,1.558,1.558,0,0,0,3.116,1.558Z" transform="translate(0 0)"/></g><g transform="translate(196.203 347.706)"><path class="b" d="M3.116,1.558A1.558,1.558,0,1,0,1.558,3.116,1.558,1.558,0,0,0,3.116,1.558Z" transform="translate(0 0)"/></g><g transform="translate(72.436 415.362)"><path class="b" d="M3.116,1.558A1.558,1.558,0,1,0,1.559,3.116,1.558,1.558,0,0,0,3.116,1.558Z" transform="translate(0 0)"/></g><g transform="translate(0 355.253)"><path class="b" d="M3.117,1.558A1.558,1.558,0,1,0,1.558,3.116,1.559,1.559,0,0,0,3.117,1.558Z" transform="translate(0 0)"/></g><g transform="translate(293.177 0)"><path class="b" d="M3.116,1.558A1.558,1.558,0,1,0,1.558,3.114,1.557,1.557,0,0,0,3.116,1.558Z" transform="translate(0 0)"/></g></g></g></svg>